<svg width="66" height="13" viewBox="0 0 66 13" fill="none" xmlns="http://www.w3.org/2000/svg">
<path d="M0.86 12.64V3.688H2.108V5.14L1.916 5.032C1.972 4.808 2.132 4.588 2.396 4.372C2.66 4.148 2.984 3.964 3.368 3.82C3.76 3.668 4.176 3.592 4.616 3.592C5.296 3.592 5.888 3.732 6.392 4.012C6.904 4.284 7.304 4.664 7.592 5.152C7.88 5.64 8.024 6.204 8.024 6.844C8.024 7.476 7.88 8.04 7.592 8.536C7.304 9.024 6.904 9.408 6.392 9.688C5.888 9.968 5.308 10.108 4.652 10.108C4.18 10.108 3.736 10.032 3.32 9.88C2.912 9.72 2.568 9.524 2.288 9.292C2.016 9.052 1.852 8.82 1.796 8.596L2.108 8.428V12.64H0.86ZM4.448 8.968C4.912 8.968 5.324 8.876 5.684 8.692C6.044 8.5 6.324 8.244 6.524 7.924C6.732 7.604 6.836 7.244 6.836 6.844C6.836 6.444 6.732 6.084 6.524 5.764C6.324 5.444 6.044 5.192 5.684 5.008C5.332 4.824 4.92 4.732 4.448 4.732C3.984 4.732 3.568 4.824 3.2 5.008C2.84 5.192 2.556 5.444 2.348 5.764C2.148 6.084 2.048 6.444 2.048 6.844C2.048 7.244 2.148 7.604 2.348 7.924C2.556 8.244 2.84 8.5 3.2 8.692C3.568 8.876 3.984 8.968 4.448 8.968ZM13.4573 10.12C12.8093 10.12 12.2333 9.98 11.7293 9.7C11.2253 9.412 10.8293 9.02 10.5413 8.524C10.2613 8.028 10.1213 7.468 10.1213 6.844C10.1213 6.204 10.2693 5.64 10.5653 5.152C10.8613 4.656 11.2653 4.268 11.7773 3.988C12.2973 3.708 12.8893 3.568 13.5533 3.568C13.9533 3.568 14.3253 3.62 14.6693 3.724C15.0133 3.828 15.3133 3.968 15.5693 4.144C15.8253 4.312 16.0293 4.504 16.1813 4.72C16.3333 4.928 16.4133 5.14 16.4213 5.356L16.0973 5.332V3.7H17.3453V10H16.0973V8.368L16.3613 8.38C16.3453 8.58 16.2533 8.784 16.0853 8.992C15.9253 9.192 15.7093 9.38 15.4373 9.556C15.1733 9.724 14.8693 9.86 14.5253 9.964C14.1893 10.068 13.8333 10.12 13.4573 10.12ZM13.7573 8.98C14.2293 8.98 14.6453 8.888 15.0053 8.704C15.3653 8.512 15.6453 8.256 15.8453 7.936C16.0453 7.608 16.1453 7.244 16.1453 6.844C16.1453 6.436 16.0453 6.072 15.8453 5.752C15.6453 5.432 15.3653 5.18 15.0053 4.996C14.6453 4.812 14.2293 4.72 13.7573 4.72C13.2933 4.72 12.8813 4.812 12.5213 4.996C12.1693 5.18 11.8893 5.432 11.6813 5.752C11.4813 6.072 11.3813 6.436 11.3813 6.844C11.3813 7.244 11.4813 7.608 11.6813 7.936C11.8893 8.256 12.1693 8.512 12.5213 8.704C12.8813 8.888 13.2933 8.98 13.7573 8.98ZM20.9342 10V3.7H22.1822V5.86L21.9302 5.608C22.0342 5.232 22.2142 4.892 22.4702 4.588C22.7342 4.276 23.0342 4.028 23.3702 3.844C23.7142 3.66 24.0702 3.568 24.4382 3.568C24.6622 3.568 24.8782 3.592 25.0862 3.64C25.3022 3.688 25.4702 3.748 25.5902 3.82L25.2662 5.128C25.1222 5.048 24.9502 4.988 24.7502 4.948C24.5582 4.9 24.3742 4.876 24.1982 4.876C23.9022 4.876 23.6302 4.928 23.3822 5.032C23.1422 5.136 22.9302 5.276 22.7462 5.452C22.5702 5.628 22.4302 5.824 22.3262 6.04C22.2302 6.256 22.1822 6.484 22.1822 6.724V10H20.9342ZM31.0715 10.12C30.3195 10.12 29.6515 9.984 29.0675 9.712C28.4835 9.432 28.0275 9.052 27.6995 8.572C27.3715 8.084 27.2075 7.532 27.2075 6.916C27.2075 6.404 27.3035 5.944 27.4955 5.536C27.6875 5.12 27.9555 4.768 28.2995 4.48C28.6435 4.184 29.0435 3.956 29.4995 3.796C29.9555 3.636 30.4435 3.556 30.9635 3.556C31.4355 3.556 31.8795 3.632 32.2955 3.784C32.7115 3.936 33.0755 4.148 33.3875 4.42C33.6995 4.692 33.9395 5.016 34.1075 5.392C34.2755 5.76 34.3555 6.168 34.3475 6.616L34.3355 7.216H28.2515L27.9755 6.232H33.2675L33.0875 6.364V6.076C33.0555 5.804 32.9355 5.564 32.7275 5.356C32.5195 5.148 32.2595 4.988 31.9475 4.876C31.6435 4.756 31.3155 4.696 30.9635 4.696C30.4675 4.696 30.0275 4.772 29.6435 4.924C29.2595 5.068 28.9595 5.3 28.7435 5.62C28.5355 5.932 28.4315 6.336 28.4315 6.832C28.4315 7.264 28.5475 7.644 28.7795 7.972C29.0195 8.292 29.3515 8.54 29.7755 8.716C30.2075 8.892 30.6995 8.98 31.2515 8.98C31.7555 8.98 32.1835 8.912 32.5355 8.776C32.8955 8.632 33.2155 8.456 33.4955 8.248L34.0715 9.16C33.8555 9.336 33.5835 9.496 33.2555 9.64C32.9355 9.784 32.5835 9.9 32.1995 9.988C31.8235 10.076 31.4475 10.12 31.0715 10.12ZM37.3991 10V3.7H38.6351V5.26L38.2871 5.344C38.4231 5.048 38.6231 4.768 38.8871 4.504C39.1511 4.232 39.4671 4.008 39.8351 3.832C40.2031 3.656 40.6031 3.568 41.0351 3.568C41.6191 3.568 42.1031 3.68 42.4871 3.904C42.8791 4.12 43.1711 4.428 43.3631 4.828C43.5631 5.228 43.6631 5.696 43.6631 6.232V10H42.4271V6.376C42.4271 6.024 42.3511 5.724 42.1991 5.476C42.0551 5.22 41.8511 5.028 41.5871 4.9C41.3311 4.764 41.0311 4.7 40.6871 4.708C40.3911 4.708 40.1151 4.76 39.8591 4.864C39.6111 4.968 39.3951 5.104 39.2111 5.272C39.0271 5.44 38.8831 5.628 38.7791 5.836C38.6831 6.036 38.6351 6.24 38.6351 6.448V10H38.0231C37.8631 10 37.7311 10 37.6271 10C37.5231 10 37.4471 10 37.3991 10Z" fill="#59A5FC"/>
<path d="M48.2 10V1.888H49.436V10H48.2ZM46.484 4.9V3.7H51.44V4.9H46.484ZM54.4987 10V3.7H55.7347V10H54.4987ZM55.0987 2.236C54.8347 2.236 54.6307 2.168 54.4867 2.032C54.3427 1.896 54.2707 1.704 54.2707 1.456C54.2707 1.224 54.3427 1.036 54.4867 0.891999C54.6387 0.748 54.8427 0.676 55.0987 0.676C55.3627 0.676 55.5667 0.744 55.7107 0.879999C55.8547 1.016 55.9267 1.208 55.9267 1.456C55.9267 1.688 55.8507 1.876 55.6987 2.02C55.5547 2.164 55.3547 2.236 55.0987 2.236ZM62.5246 10.12C61.7726 10.12 61.1046 9.984 60.5206 9.712C59.9366 9.432 59.4806 9.052 59.1526 8.572C58.8246 8.084 58.6606 7.532 58.6606 6.916C58.6606 6.404 58.7566 5.944 58.9486 5.536C59.1406 5.12 59.4086 4.768 59.7526 4.48C60.0966 4.184 60.4966 3.956 60.9526 3.796C61.4086 3.636 61.8966 3.556 62.4166 3.556C62.8886 3.556 63.3326 3.632 63.7486 3.784C64.1646 3.936 64.5286 4.148 64.8406 4.42C65.1526 4.692 65.3926 5.016 65.5606 5.392C65.7286 5.76 65.8086 6.168 65.8006 6.616L65.7886 7.216H59.7046L59.4286 6.232H64.7206L64.5406 6.364V6.076C64.5086 5.804 64.3886 5.564 64.1806 5.356C63.9726 5.148 63.7126 4.988 63.4006 4.876C63.0966 4.756 62.7686 4.696 62.4166 4.696C61.9206 4.696 61.4806 4.772 61.0966 4.924C60.7126 5.068 60.4126 5.3 60.1966 5.62C59.9886 5.932 59.8846 6.336 59.8846 6.832C59.8846 7.264 60.0006 7.644 60.2326 7.972C60.4726 8.292 60.8046 8.54 61.2286 8.716C61.6606 8.892 62.1526 8.98 62.7046 8.98C63.2086 8.98 63.6366 8.912 63.9886 8.776C64.3486 8.632 64.6686 8.456 64.9486 8.248L65.5246 9.16C65.3086 9.336 65.0366 9.496 64.7086 9.64C64.3886 9.784 64.0366 9.9 63.6526 9.988C63.2766 10.076 62.9006 10.12 62.5246 10.12Z" fill="#FCA4D7"/>
</svg>
