<svg width="251" height="236" viewBox="0 0 251 236" fill="none" xmlns="http://www.w3.org/2000/svg">
<rect width="251" height="236" fill="url(#paint0_linear_84_7120)"/>
<path d="M125.504 20.4167C141.62 20.4167 154.629 33.4259 154.629 49.5417C154.629 65.6576 141.62 78.6668 125.504 78.6668C109.388 78.6668 96.379 65.6576 96.379 49.5417C96.379 33.4259 109.388 20.4167 125.504 20.4167ZM203.171 175.75L183.754 122.937C180.356 113.326 177.346 104.976 164.337 98.0834C151.037 91.2876 141.329 88.3751 125.504 88.3751C109.874 88.3751 100.165 91.2876 86.6707 98.0834C73.8557 104.976 70.8461 113.326 67.254 122.937L47.8373 175.75C45.6044 186.721 70.9432 199.438 87.9327 206.72C99.6798 211.865 112.301 214.583 125.504 214.583C138.901 214.583 151.425 211.865 163.269 206.72C180.259 199.438 205.598 186.721 203.171 175.75ZM158.706 170.896L125.504 204.875L92.3015 170.896C88.8065 167.207 86.6707 162.255 86.6707 156.819C86.6707 145.848 95.4082 136.917 106.087 136.917C111.427 136.917 116.378 139.15 119.873 142.839L125.504 148.567L131.135 142.742C134.63 139.15 139.581 136.917 144.921 136.917C155.697 136.917 164.337 145.848 164.337 156.819C164.337 162.255 162.201 167.304 158.706 170.896Z" fill="#F4FEFF"/>
<defs>
<linearGradient id="paint0_linear_84_7120" x1="2.12334e-06" y1="98.3332" x2="251.207" y2="99.6998" gradientUnits="userSpaceOnUse">
<stop stop-color="#A1E1FF"/>
<stop offset="1" stop-color="#DC98C1"/>
</linearGradient>
</defs>
</svg>
