<svg width="361" height="318" viewBox="0 0 361 318" fill="none" xmlns="http://www.w3.org/2000/svg">
<rect width="361" height="318" fill="#F4FEFF"/>
<path d="M180.504 61.4167C196.62 61.4167 209.629 74.4259 209.629 90.5417C209.629 106.658 196.62 119.667 180.504 119.667C164.388 119.667 151.379 106.658 151.379 90.5417C151.379 74.4259 164.388 61.4167 180.504 61.4167ZM258.171 216.75L238.754 163.937C235.356 154.326 232.346 145.976 219.337 139.083C206.037 132.288 196.329 129.375 180.504 129.375C164.874 129.375 155.165 132.288 141.671 139.083C128.856 145.976 125.846 154.326 122.254 163.937L102.837 216.75C100.604 227.721 125.943 240.438 142.933 247.72C154.68 252.865 167.301 255.583 180.504 255.583C193.901 255.583 206.425 252.865 218.269 247.72C235.259 240.438 260.598 227.721 258.171 216.75ZM213.706 211.896L180.504 245.875L147.301 211.896C143.806 208.207 141.671 203.255 141.671 197.819C141.671 186.848 150.408 177.917 161.087 177.917C166.427 177.917 171.378 180.15 174.873 183.839L180.504 189.567L186.135 183.742C189.63 180.15 194.581 177.917 199.921 177.917C210.697 177.917 219.337 186.848 219.337 197.819C219.337 203.255 217.201 208.304 213.706 211.896Z" fill="#A1E1FF"/>
</svg>
